<svg width="232" height="24" viewBox="0 0 232 24" fill="none" xmlns="http://www.w3.org/2000/svg">
<path d="M18.3263 1.90391H21.6998L14.3297 10.3274L23 21.7899H16.2112L10.894 14.8379L4.80995 21.7899H1.43443L9.31743 12.78L1 1.90391H7.96111L12.7674 8.25824L18.3263 1.90391ZM17.1423 19.7707H19.0116L6.94539 3.81704H4.93946L17.1423 19.7707Z" fill="white"/>
<g clip-path="url(#clip0_2728_2843)">
<path d="M64 1.54207e-05C70.6274 1.54207e-05 76 5.3726 76 12C76 18.1352 71.3955 23.1944 65.4538 23.9121V15.667L68.7001 15.667L69.3734 12H65.4538V10.7031C65.4538 9.73419 65.6439 9.06341 66.0799 8.63485C66.5159 8.20628 67.1979 8.01995 68.1817 8.01995C68.4307 8.01995 68.6599 8.02242 68.8633 8.02738C69.1591 8.03458 69.4002 8.04702 69.568 8.06468V4.74049C69.501 4.72186 69.4218 4.70322 69.3331 4.68488C69.1321 4.64332 68.8822 4.60326 68.6136 4.56808C68.0523 4.49455 67.4093 4.44232 66.9594 4.44232C65.1424 4.44232 63.7692 4.83104 62.8107 5.6362C61.6539 6.60792 61.1011 8.18623 61.1011 10.4199V12H58.6266V15.667H61.1011V23.6466C55.8743 22.3499 52 17.6278 52 12C52 5.3726 57.3726 1.54207e-05 64 1.54207e-05Z" fill="white"/>
</g>
<path d="M122.395 7.02212C121.6 7.02368 120.954 6.3802 120.953 5.58548C120.951 4.79076 121.595 4.14457 122.39 4.14302C123.185 4.14146 123.831 4.78531 123.833 5.58004C123.834 6.37476 123.19 7.02057 122.395 7.02212Z" fill="white"/>
<path fill-rule="evenodd" clip-rule="evenodd" d="M116.011 18.161C112.609 18.1676 109.845 15.4149 109.839 12.0117C109.832 8.60923 112.585 5.84481 115.988 5.8382C119.391 5.83159 122.155 8.5859 122.162 11.9879C122.169 15.3912 119.414 18.1544 116.011 18.161ZM115.992 8.00035C113.784 8.00424 111.996 9.79858 112 12.0074C112.004 14.2166 113.799 16.0039 116.007 15.9996C118.216 15.9954 120.004 14.2014 120 11.9922C119.996 9.78302 118.201 7.99608 115.992 8.00035Z" fill="white"/>
<path fill-rule="evenodd" clip-rule="evenodd" d="M108.119 0.646479C108.881 0.347876 109.753 0.143362 111.03 0.0830982C112.31 0.0216726 112.719 0.00767102 115.977 0.00145262C119.236 -0.00476578 119.644 0.00766862 120.924 0.0644334C122.202 0.119643 123.074 0.321049 123.838 0.616544C124.628 0.920974 125.298 1.33078 125.966 1.99603C126.634 2.66205 127.045 3.33002 127.354 4.1189C127.652 4.88174 127.856 5.75306 127.917 7.03068C127.978 8.31023 127.992 8.71847 127.999 11.9771C128.005 15.2353 127.992 15.6443 127.936 16.925C127.88 18.2014 127.679 19.0743 127.384 19.8375C127.078 20.6276 126.669 21.2979 126.004 21.9659C125.339 22.6342 124.67 23.0452 123.881 23.3539C123.118 23.6517 122.247 23.8562 120.97 23.9173C119.69 23.9779 119.282 23.9923 116.022 23.9985C112.765 24.0048 112.356 23.9923 111.076 23.9359C109.799 23.88 108.926 23.6789 108.163 23.3838C107.373 23.0782 106.702 22.6696 106.034 22.004C105.366 21.3383 104.954 20.67 104.646 19.8811C104.348 19.1186 104.144 18.2469 104.083 16.9705C104.022 15.6901 104.008 15.2811 104.001 12.0229C103.995 8.76435 104.008 8.35611 104.064 7.07616C104.12 5.79855 104.321 4.92606 104.616 4.16206C104.921 3.37239 105.33 2.70248 105.996 2.03413C106.662 1.36616 107.33 0.954017 108.119 0.646479ZM108.942 21.3679C109.365 21.5308 110 21.7252 111.17 21.7761C112.436 21.8309 112.815 21.843 116.018 21.8368C119.223 21.8309 119.602 21.8173 120.868 21.7579C122.036 21.7022 122.672 21.5055 123.094 21.3407C123.654 21.1218 124.053 20.8601 124.472 20.4406C124.891 20.0195 125.151 19.6194 125.368 19.0591C125.531 18.6354 125.725 17.9996 125.776 16.8297C125.831 15.5646 125.843 15.1851 125.837 11.9809C125.831 8.77757 125.817 8.3981 125.757 7.13254C125.702 5.96339 125.506 5.32808 125.34 4.90623C125.121 4.34519 124.861 3.94705 124.44 3.52753C124.019 3.10801 123.619 2.84945 123.058 2.6325C122.635 2.46881 121.999 2.27518 120.83 2.22426C119.564 2.16865 119.185 2.15737 115.981 2.1636C112.777 2.16982 112.398 2.18264 111.133 2.24253C109.963 2.29812 109.329 2.49447 108.906 2.65972C108.346 2.87861 107.947 3.13872 107.527 3.5598C107.109 3.98087 106.849 4.38018 106.632 4.94161C106.47 5.36464 106.274 6.00072 106.224 7.16987C106.169 8.43581 106.157 8.81529 106.164 12.0187C106.169 15.2228 106.183 15.6023 106.242 16.8671C106.297 18.037 106.495 18.6715 106.66 19.0949C106.879 19.6544 107.139 20.0533 107.56 20.4729C107.981 20.8908 108.381 21.1509 108.942 21.3679Z" fill="white"/>
<g clip-path="url(#clip1_2728_2843)">
<path d="M178.223 0H157.772C156.792 0 156 0.773438 156 1.72969V22.2656C156 23.2219 156.792 24 157.772 24H178.223C179.203 24 180 23.2219 180 22.2703V1.72969C180 0.773438 179.203 0 178.223 0ZM163.12 20.4516H159.558V8.99531H163.12V20.4516ZM161.339 7.43438C160.195 7.43438 159.272 6.51094 159.272 5.37187C159.272 4.23281 160.195 3.30937 161.339 3.30937C162.478 3.30937 163.402 4.23281 163.402 5.37187C163.402 6.50625 162.478 7.43438 161.339 7.43438ZM176.452 20.4516H172.894V14.8828C172.894 13.5563 172.87 11.8453 171.042 11.8453C169.191 11.8453 168.909 13.2938 168.909 14.7891V20.4516H165.356V8.99531H168.769V10.5609H168.816C169.289 9.66094 170.452 8.70938 172.181 8.70938C175.786 8.70938 176.452 11.0813 176.452 14.1656V20.4516V20.4516Z" fill="white"/>
</g>
<g clip-path="url(#clip2_2728_2843)">
<path fill-rule="evenodd" clip-rule="evenodd" d="M230.747 4.83411C231.119 5.20888 231.386 5.67487 231.522 6.18546C232.024 8.07 232.024 12 232.024 12C232.024 12 232.024 15.93 231.522 17.8145C231.386 18.3251 231.119 18.7911 230.747 19.1659C230.374 19.5407 229.91 19.811 229.4 19.95C227.524 20.4545 220.024 20.4545 220.024 20.4545C220.024 20.4545 212.524 20.4545 210.647 19.95C210.138 19.811 209.673 19.5407 209.301 19.1659C208.929 18.7911 208.661 18.3251 208.526 17.8145C208.024 15.93 208.024 12 208.024 12C208.024 12 208.024 8.07 208.526 6.18546C208.661 5.67487 208.929 5.20888 209.301 4.83411C209.673 4.45935 210.138 4.18896 210.647 4.05C212.524 3.54546 220.024 3.54546 220.024 3.54546C220.024 3.54546 227.524 3.54546 229.4 4.05C229.91 4.18896 230.374 4.45935 230.747 4.83411ZM223.842 12L217.569 8.4314V15.5687L223.842 12Z" fill="white"/>
</g>
<defs>
<clipPath id="clip0_2728_2843">
<rect width="24" height="24" fill="white" transform="translate(52)"/>
</clipPath>
<clipPath id="clip1_2728_2843">
<rect width="24" height="24" fill="white" transform="translate(156)"/>
</clipPath>
<clipPath id="clip2_2728_2843">
<rect width="24" height="24" fill="white" transform="translate(208)"/>
</clipPath>
</defs>
</svg>
