<svg width="562" height="18" viewBox="0 0 562 18" fill="none" xmlns="http://www.w3.org/2000/svg">
<g clip-path="url(#clip0_2728_2754)">
<g clip-path="url(#clip1_2728_2754)">
<path d="M460.85 18L476 18L464.19 -5.16231e-07L449.04 -1.17846e-06L460.85 18Z" fill="white"/>
<path d="M503.85 18L519 18L507.19 -5.16232e-07L492.04 -1.17846e-06L503.85 18Z" fill="#61B8E6"/>
<path d="M546.85 18L562 18L550.19 -5.16232e-07L535.04 -1.17846e-06L546.85 18Z" fill="#61B8E6"/>
<path d="M439.319 18L454.469 18L442.659 -5.16231e-07L427.509 -1.17846e-06L439.319 18Z" fill="#61B8E6"/>
<path d="M417.801 18L432.941 18L421.131 -5.16231e-07L405.981 -1.17846e-06L417.801 18Z" fill="#61B8E6"/>
<path d="M162.85 18L178 18L166.19 -5.16231e-07L151.04 -1.17846e-06L162.85 18Z" fill="#61B8E6"/>
<path d="M141.319 18L156.469 18L144.659 -5.16231e-07L129.509 -1.17846e-06L141.319 18Z" fill="#61B8E6"/>
<path d="M11.8014 18L26.9414 18L15.1314 -5.16231e-07L-0.0186157 -1.17846e-06L11.8014 18Z" fill="#61B8E6"/>
<path d="M332.801 18L347.941 18L336.131 -5.16231e-07L320.981 -1.17846e-06L332.801 18Z" fill="#61B8E6"/>
<path d="M235.801 18L250.941 18L239.131 -5.16231e-07L223.981 -1.17846e-06L235.801 18Z" fill="white"/>
</g>
</g>
<defs>
<clipPath id="clip0_2728_2754">
<rect width="562" height="18" fill="white"/>
</clipPath>
<clipPath id="clip1_2728_2754">
<rect width="18" height="562.02" fill="white" transform="translate(562) rotate(90)"/>
</clipPath>
</defs>
</svg>
