<svg width="119" height="109" viewBox="0 0 119 109" fill="none" xmlns="http://www.w3.org/2000/svg">
<g clip-path="url(#clip0_3019_3164)">
<path d="M77.31 0H75.7688V7.67532H68.1574V9.23817H75.7688V16.9048H77.31V9.23817H84.9213V7.67532H77.31V0Z" fill="#FF3D00"/>
<path d="M9.15252 30.7013H7.61132V38.3766H0V39.9308H7.61132V47.6061H9.15252V39.9308H16.7638V38.3766H9.15252V30.7013Z" fill="#FF3D00"/>
<path d="M43.2313 30.7013H41.69V38.3766H34.0787V39.9308H41.69V47.6061H43.2313V39.9308H50.8426V38.3766H43.2313V30.7013Z" fill="#FF3D00"/>
<path d="M111.397 38.3766V30.7013H109.847V38.3766H102.236V39.9308H109.847V47.6061H111.397V39.9308H119V38.3766H111.397Z" fill="#FF3D00"/>
<path d="M43.2313 61.3939H41.69V69.0692H34.0787V70.6321H41.69V78.3074H43.2313V70.6321H50.8426V69.0692H43.2313V61.3939Z" fill="#FF3D00"/>
<path d="M77.31 61.3939H75.7688V69.0692H68.1574V70.6321H75.7688V78.3074H77.31V70.6321H84.9213V69.0692H77.31V61.3939Z" fill="#FF3D00"/>
<path d="M111.397 61.3939H109.847V69.0692H102.236V70.6321H109.847V78.3074H111.397V70.6321H119V69.0692H111.397V61.3939Z" fill="#FF3D00"/>
<path d="M9.15252 92.0952H7.61132V99.7705H0V101.333H7.61132V109H9.15252V101.333H16.7638V99.7705H9.15252V92.0952Z" fill="#FF3D00"/>
<path d="M43.2313 92.0952H41.69V99.7705H34.0787V101.333H41.69V109H43.2313V101.333H50.8426V99.7705H43.2313V92.0952Z" fill="#FF3D00"/>
<path d="M77.31 92.0952H75.7688V99.7705H68.1574V101.333H75.7688V109H77.31V101.333H84.9213V99.7705H77.31V92.0952Z" fill="#FF3D00"/>
</g>
<defs>
<clipPath id="clip0_3019_3164">
<rect width="119" height="109" fill="white"/>
</clipPath>
</defs>
</svg>
