<svg width="368" height="34" viewBox="0 0 368 34" fill="none" xmlns="http://www.w3.org/2000/svg">
<g clip-path="url(#clip0_2728_2973)">
<path d="M0 33.94L32.89 0" stroke="#FF3D00" stroke-width="1.16" stroke-miterlimit="10"/>
<path d="M20.89 33.94L53.78 0" stroke="#FF3D00" stroke-width="1.16" stroke-miterlimit="10"/>
<path d="M41.78 33.94L74.68 0" stroke="#FF3D00" stroke-width="1.16" stroke-miterlimit="10"/>
<path d="M62.68 33.94L95.57 0" stroke="#FF3D00" stroke-width="1.16" stroke-miterlimit="10"/>
<path d="M83.57 33.94L116.46 0" stroke="#FF3D00" stroke-width="1.16" stroke-miterlimit="10"/>
<path d="M104.46 33.94L137.35 0" stroke="#FF3D00" stroke-width="1.16" stroke-miterlimit="10"/>
<path d="M125.35 33.94L158.24 0" stroke="#FF3D00" stroke-width="1.16" stroke-miterlimit="10"/>
<path d="M146.24 33.94L179.14 0" stroke="#FF3D00" stroke-width="1.16" stroke-miterlimit="10"/>
<path d="M167.14 33.94L200.04 0" stroke="#FF3D00" stroke-width="1.16" stroke-miterlimit="10"/>
<path d="M188.04 33.94L220.93 0" stroke="#FF3D00" stroke-width="1.16" stroke-miterlimit="10"/>
<path d="M208.93 33.94L241.82 0" stroke="#FF3D00" stroke-width="1.16" stroke-miterlimit="10"/>
<path d="M229.82 33.94L262.71 0" stroke="#FF3D00" stroke-width="1.16" stroke-miterlimit="10"/>
<path d="M250.71 33.94L283.6 0" stroke="#FF3D00" stroke-width="1.16" stroke-miterlimit="10"/>
<path d="M271.6 33.94L304.5 0" stroke="#FF3D00" stroke-width="1.16" stroke-miterlimit="10"/>
<path d="M292.5 33.94L325.4 0" stroke="#FF3D00" stroke-width="1.16" stroke-miterlimit="10"/>
<path d="M313.4 33.94L346.29 0" stroke="#FF3D00" stroke-width="1.16" stroke-miterlimit="10"/>
<path d="M334.29 33.94L367.18 0" stroke="#FF3D00" stroke-width="1.16" stroke-miterlimit="10"/>
</g>
<defs>
<clipPath id="clip0_2728_2973">
<rect width="367.18" height="33.94" fill="white"/>
</clipPath>
</defs>
</svg>
