<svg width="288" height="40" viewBox="0 0 288 40" fill="none" xmlns="http://www.w3.org/2000/svg">
<path d="M24.435 6.53854H28.933L19.1063 17.7699L30.6667 33.0532H21.615L14.5254 23.7839L6.41326 33.0532H1.91258L12.4232 21.04L1.33333 6.53854H10.6148L17.0232 15.011L24.435 6.53854ZM22.8564 30.3609H25.3488L9.26053 9.08939H6.58595L22.8564 30.3609Z" fill="black"/>
<g clip-path="url(#clip0_2728_2991)">
<path d="M80 4.00002C88.8365 4.00002 96 11.1635 96 20C96 28.1803 89.8607 34.9259 81.9384 35.8828V24.8893L86.2667 24.8893L87.1646 20H81.9384V18.2708C81.9384 16.9789 82.1918 16.0845 82.7731 15.5131C83.3545 14.9417 84.2638 14.6933 85.5756 14.6933C85.9076 14.6933 86.2132 14.6966 86.4844 14.7032C86.8788 14.7128 87.2002 14.7294 87.4241 14.7529V10.3207C87.3346 10.2958 87.229 10.271 87.1107 10.2465C86.8428 10.1911 86.5096 10.1377 86.1515 10.0908C85.4031 9.99273 84.5457 9.92309 83.9458 9.92309C81.5232 9.92309 79.6923 10.4414 78.4143 11.5149C76.8718 12.8106 76.1348 14.915 76.1348 17.8932V20H72.8354V24.8893H76.1348V35.5288C69.1658 33.7998 64 27.5037 64 20C64 11.1635 71.1635 4.00002 80 4.00002Z" fill="black"/>
</g>
<path d="M152.527 13.3628C151.467 13.3649 150.606 12.5069 150.604 11.4473C150.602 10.3877 151.46 9.52609 152.52 9.52402C153.58 9.52195 154.441 10.3804 154.443 11.44C154.445 12.4997 153.587 13.3608 152.527 13.3628Z" fill="black"/>
<path fill-rule="evenodd" clip-rule="evenodd" d="M144.015 28.2147C139.479 28.2235 135.793 24.5532 135.785 20.0155C135.776 15.479 139.447 11.7931 143.984 11.7843C148.521 11.7755 152.207 15.4479 152.216 19.9839C152.225 24.5215 148.552 28.2059 144.015 28.2147ZM143.989 14.6671C141.045 14.6723 138.661 17.0648 138.666 20.0098C138.672 22.9554 141.065 25.3386 144.01 25.3329C146.955 25.3271 149.339 22.9352 149.333 19.9896C149.327 17.044 146.934 14.6614 143.989 14.6671Z" fill="black"/>
<path fill-rule="evenodd" clip-rule="evenodd" d="M133.492 4.86197C134.508 4.46383 135.671 4.19115 137.374 4.1108C139.08 4.0289 139.625 4.01023 143.969 4.00194C148.314 3.99365 148.859 4.01022 150.566 4.08591C152.269 4.15952 153.432 4.42806 154.45 4.82206C155.504 5.22797 156.397 5.77438 157.288 6.66137C158.179 7.5494 158.727 8.44003 159.138 9.49187C159.536 10.509 159.808 11.6707 159.889 13.3742C159.97 15.0803 159.99 15.6246 159.998 19.9694C160.006 24.3137 159.989 24.859 159.914 26.5667C159.84 28.2686 159.572 29.4324 159.178 30.4501C158.771 31.5035 158.226 32.3972 157.339 33.2878C156.452 34.179 155.56 34.7269 154.508 35.1385C153.491 35.5356 152.329 35.8083 150.627 35.8897C148.92 35.9706 148.376 35.9898 144.03 35.9981C139.686 36.0064 139.141 35.9898 137.435 35.9146C135.732 35.8399 134.568 35.5719 133.55 35.1785C132.497 34.771 131.603 34.2261 130.713 33.3386C129.821 32.4511 129.273 31.56 128.862 30.5081C128.464 29.4915 128.192 28.3293 128.111 26.6273C128.029 24.9202 128.01 24.3748 128.002 20.0306C127.994 15.6858 128.011 15.1415 128.085 13.4349C128.161 11.7314 128.428 10.5681 128.822 9.54941C129.228 8.49652 129.774 7.60331 130.662 6.71217C131.549 5.82155 132.44 5.27202 133.492 4.86197ZM134.589 32.4905C135.153 32.7077 136 32.9669 137.56 33.0348C139.248 33.1079 139.754 33.124 144.025 33.1157C148.297 33.1079 148.803 33.0898 150.49 33.0105C152.048 32.9363 152.896 32.674 153.458 32.4542C154.206 32.1623 154.737 31.8135 155.296 31.2541C155.855 30.6927 156.201 30.1592 156.49 29.4122C156.708 28.8471 156.967 27.9995 157.034 26.4396C157.109 24.7527 157.124 24.2468 157.116 19.9746C157.108 15.7034 157.09 15.1975 157.01 13.5101C156.936 11.9512 156.674 11.1041 156.454 10.5416C156.162 9.79358 155.814 9.26274 155.253 8.70337C154.692 8.14401 154.159 7.79926 153.411 7.51C152.847 7.29175 151.999 7.03358 150.44 6.96567C148.752 6.89154 148.246 6.87649 143.974 6.8848C139.703 6.89309 139.198 6.91019 137.51 6.99004C135.951 7.06416 135.105 7.32596 134.541 7.54629C133.794 7.83814 133.263 8.18496 132.703 8.7464C132.145 9.30783 131.799 9.84023 131.51 10.5888C131.293 11.1529 131.032 12.001 130.966 13.5598C130.892 15.2477 130.876 15.7537 130.885 20.0249C130.893 24.2971 130.911 24.803 130.99 26.4894C131.063 28.0493 131.327 28.8953 131.546 29.4599C131.838 30.2059 132.186 30.7378 132.746 31.2971C133.308 31.8544 133.841 32.2012 134.589 32.4905Z" fill="black"/>
<g clip-path="url(#clip1_2728_2991)">
<path d="M221.631 4H194.362C193.056 4 192 5.03125 192 6.30625V33.6875C192 34.9625 193.056 36 194.362 36H221.631C222.938 36 224 34.9625 224 33.6938V6.30625C224 5.03125 222.938 4 221.631 4ZM201.494 31.2687H196.744V15.9937H201.494V31.2687ZM199.119 13.9125C197.594 13.9125 196.363 12.6812 196.363 11.1625C196.363 9.64375 197.594 8.4125 199.119 8.4125C200.638 8.4125 201.869 9.64375 201.869 11.1625C201.869 12.675 200.638 13.9125 199.119 13.9125ZM219.269 31.2687H214.525V23.8438C214.525 22.075 214.494 19.7937 212.056 19.7937C209.587 19.7937 209.212 21.725 209.212 23.7188V31.2687H204.475V15.9937H209.025V18.0813H209.087C209.719 16.8813 211.269 15.6125 213.575 15.6125C218.381 15.6125 219.269 18.775 219.269 22.8875V31.2687V31.2687Z" fill="black"/>
</g>
<g clip-path="url(#clip2_2728_2991)">
<path fill-rule="evenodd" clip-rule="evenodd" d="M286.329 10.4455C286.825 10.9452 287.182 11.5665 287.363 12.2473C288.032 14.76 288.032 20 288.032 20C288.032 20 288.032 25.24 287.363 27.7527C287.182 28.4335 286.825 29.0548 286.329 29.5545C285.832 30.0542 285.213 30.4147 284.534 30.6C282.032 31.2727 272.032 31.2727 272.032 31.2727C272.032 31.2727 262.032 31.2727 259.53 30.6C258.85 30.4147 258.231 30.0542 257.735 29.5545C257.238 29.0548 256.882 28.4335 256.701 27.7527C256.032 25.24 256.032 20 256.032 20C256.032 20 256.032 14.76 256.701 12.2473C256.882 11.5665 257.238 10.9452 257.735 10.4455C258.231 9.9458 258.85 9.58528 259.53 9.4C262.032 8.72728 272.032 8.72728 272.032 8.72728C272.032 8.72728 282.032 8.72728 284.534 9.4C285.213 9.58528 285.832 9.9458 286.329 10.4455ZM277.123 20L268.759 15.2419V24.7582L277.123 20Z" fill="black"/>
</g>
<defs>
<clipPath id="clip0_2728_2991">
<rect width="32" height="32" fill="white" transform="translate(64 4)"/>
</clipPath>
<clipPath id="clip1_2728_2991">
<rect width="32" height="32" fill="white" transform="translate(192 4)"/>
</clipPath>
<clipPath id="clip2_2728_2991">
<rect width="32" height="32" fill="white" transform="translate(256 4)"/>
</clipPath>
</defs>
</svg>
