<svg width="20" height="20" viewBox="0 0 20 20" fill="none" xmlns="http://www.w3.org/2000/svg">
<path d="M1.66602 5L7.42686 8.26414C9.55068 9.4675 10.448 9.4675 12.5718 8.26414L18.3327 5" stroke="#FF3D00" stroke-width="1.5" stroke-linejoin="round"/>
<path d="M1.67916 11.2296C1.73363 13.7843 1.76087 15.0615 2.70348 16.0078C3.64608 16.954 4.95796 16.9869 7.58171 17.0528C9.19877 17.0935 10.7999 17.0935 12.417 17.0528C15.0408 16.9869 16.3526 16.954 17.2953 16.0078C18.2379 15.0615 18.2651 13.7843 18.3195 11.2296C18.3371 10.4082 18.3371 9.59171 18.3195 8.77029C18.2651 6.21568 18.2379 4.93837 17.2953 3.99218C16.3526 3.04599 15.0408 3.01303 12.417 2.9471C10.7999 2.90647 9.19877 2.90647 7.5817 2.94709C4.95796 3.01301 3.64608 3.04597 2.70347 3.99217C1.76087 4.93836 1.73363 6.21567 1.67915 8.77029C1.66163 9.59171 1.66164 10.4082 1.67916 11.2296Z" stroke="#FF3D00" stroke-width="1.5" stroke-linejoin="round"/>
</svg>
