<svg width="18" height="18" viewBox="0 0 18 18" fill="none" xmlns="http://www.w3.org/2000/svg">
<path fill-rule="evenodd" clip-rule="evenodd" d="M11.71 11.4618L11.43 11.1918C12.41 10.0518 13 8.57175 13 6.96175C13 3.37175 10.09 0.461753 6.5 0.461753C2.91 0.461753 0 3.37175 0 6.96175C0 10.5518 2.91 13.4618 6.5 13.4618C8.11 13.4618 9.59 12.8718 10.73 11.8918L11 12.1718V12.9618L15.2929 17.2461C15.6835 17.6359 16.3162 17.6356 16.7064 17.2454L16.7836 17.1682C17.1738 16.7779 17.1742 16.1453 16.7843 15.7546L12.5 11.4618H11.71ZM2 6.96175C2 4.47175 4.01 2.46175 6.5 2.46175C8.99 2.46175 11 4.47175 11 6.96175C11 9.45175 8.99 11.4618 6.5 11.4618C4.01 11.4618 2 9.45175 2 6.96175Z" fill="#008CD7"/>
</svg>
