<svg width="1440" height="264" viewBox="0 0 1440 264" fill="none" xmlns="http://www.w3.org/2000/svg">
<g clip-path="url(#clip0_2728_2862)">
<g clip-path="url(#clip1_2728_2862)">
<path opacity="0.12" d="M-124.061 156.079C67.211 153.362 82.6381 128.446 206.975 140.987C331.354 153.571 444.904 192.909 582.704 164.9C720.461 136.891 800.356 47.3031 890.829 85.4708C981.301 123.638 978.165 177.943 1056.64 171.839C1135.11 165.736 1222.74 106.081 1284.74 105.537C1338.13 105.077 1289.26 159.214 1435.96 155.954" stroke="#91CEEE" stroke-width="0.28" stroke-miterlimit="10"/>
<path opacity="0.25" d="M-117.162 161.263C74.1095 158.545 84.3524 108.421 208.731 120.963C333.11 133.546 448.291 206.663 586.09 178.653C723.848 150.644 799.227 36.7264 889.658 74.8941C980.131 113.062 949.234 186.053 1027.67 179.949C1106.14 173.846 1197.57 102.276 1268.19 103.363C1321.53 104.199 1308.32 178.026 1454.99 164.189" stroke="#91CEEE" stroke-width="0.31" stroke-miterlimit="10"/>
<path opacity="0.38" d="M-110.264 166.446C81.0079 163.729 86.1085 88.3971 210.487 100.98C334.866 113.564 451.678 220.458 589.477 192.449C727.234 164.44 798.057 26.1917 888.529 64.3594C979.002 102.527 920.303 194.163 998.777 188.06C1077.25 181.956 1172.49 99.0573 1251.72 101.189C1305.06 102.653 1327.43 196.88 1474.05 172.425" stroke="#91CEEE" stroke-width="0.34" stroke-miterlimit="10"/>
<path opacity="0.5" d="M-103.322 171.588C87.9493 168.871 87.9075 68.3308 212.286 80.914C336.665 93.4972 455.107 234.17 592.906 206.161C730.664 178.152 796.971 15.5732 887.444 53.7409C977.916 91.9086 891.457 202.231 969.931 196.128C1048.4 190.024 1147.45 95.6711 1235.33 98.9736C1288.67 100.98 1346.66 215.692 1493.24 180.618" stroke="#91CEEE" stroke-width="0.38" stroke-miterlimit="10"/>
<path opacity="0.62" d="M-96.4258 176.772C94.8458 174.055 89.6616 48.3063 214.04 60.8895C338.419 73.4727 458.492 247.924 596.249 219.915C734.006 191.905 795.799 4.99659 886.229 43.1643C976.702 81.332 862.482 210.299 940.914 204.196C1019.39 198.093 1122.24 92.2012 1218.73 96.7579C1272.03 99.2662 1365.64 234.463 1512.22 188.812" stroke="#91CEEE" stroke-width="0.41" stroke-miterlimit="10"/>
<path opacity="0.75" d="M-89.4844 181.956C101.787 179.239 91.4606 28.282 215.798 40.8652C340.176 53.4484 461.879 261.678 599.637 233.668C737.394 205.659 794.629 -5.57986 885.102 32.5878C975.574 70.7555 833.552 218.368 912.026 212.306C990.5 206.203 1097.15 88.6897 1202.26 94.626C1255.56 97.6359 1384.79 253.358 1531.33 197.089" stroke="#91CEEE" stroke-width="0.44" stroke-miterlimit="10"/>
<path opacity="0.88" d="M-82.5859 187.14C108.686 184.381 93.1749 8.2575 217.554 20.8407C341.932 33.4239 465.266 275.431 603.023 247.422C740.781 219.413 793.501 -16.1564 883.973 22.0531C974.446 60.2207 804.663 226.52 883.137 220.416C961.611 214.313 1072.11 85.0527 1185.79 92.4522C1239.09 95.922 1403.9 272.212 1550.43 205.325" stroke="#91CEEE" stroke-width="0.47" stroke-miterlimit="10"/>
<path d="M-75.6875 192.323C115.626 189.564 94.9727 -11.7671 219.31 0.81611C343.688 13.3993 468.653 289.185 606.41 261.176C744.167 233.167 792.33 -26.7332 882.803 11.4763C973.275 49.644 775.691 234.588 854.164 228.526C932.638 222.423 1046.98 81.3738 1169.27 90.2782C1222.58 94.166 1423 291.024 1569.5 213.56" stroke="#91CEEE" stroke-width="0.5" stroke-miterlimit="10"/>
</g>
</g>
<defs>
<clipPath id="clip0_2728_2862">
<rect width="1440" height="263.422" fill="white"/>
</clipPath>
<clipPath id="clip1_2728_2862">
<rect width="1440" height="265" fill="white" transform="translate(0 -0.814209)"/>
</clipPath>
</defs>
</svg>
